<mxfile host="Electron" modified="2023-04-17T03:15:46.249Z" agent="Mozilla/5.0 (Windows NT 10.0; Win64; x64) AppleWebKit/537.36 (KHTML, like Gecko) draw.io/21.1.2 Chrome/106.0.5249.199 Electron/21.4.3 Safari/537.36" etag="yUreMCeHw5opePpxC0ul" version="21.1.2" type="device">
  <diagram name="PÃ¡gina-1" id="5MXyfzgB6LmMbSLbHrFQ">
    <mxGraphModel dx="1434" dy="836" grid="1" gridSize="10" guides="1" tooltips="1" connect="1" arrows="1" fold="1" page="1" pageScale="1" pageWidth="827" pageHeight="1169" math="0" shadow="0">
      <root>
        <mxCell id="0" />
        <mxCell id="1" parent="0" />
        <mxCell id="0Ie9fvfiQFUvkpEifEvk-30" value="&lt;b&gt;Backend&lt;/b&gt;" style="rounded=0;whiteSpace=wrap;html=1;fillColor=#cce5ff;strokeColor=#36393d;align=left;verticalAlign=top;" vertex="1" parent="1">
          <mxGeometry x="140" y="90" width="530" height="295" as="geometry" />
        </mxCell>
        <mxCell id="0Ie9fvfiQFUvkpEifEvk-33" value="&lt;b&gt;Frontend&lt;/b&gt;" style="rounded=0;whiteSpace=wrap;html=1;fillColor=#cdeb8b;strokeColor=#36393d;align=left;verticalAlign=top;" vertex="1" parent="1">
          <mxGeometry x="290" y="30" width="230" height="80" as="geometry" />
        </mxCell>
        <mxCell id="0Ie9fvfiQFUvkpEifEvk-31" value="" style="rounded=0;whiteSpace=wrap;html=1;" vertex="1" parent="1">
          <mxGeometry x="354" y="355" width="86" height="100" as="geometry" />
        </mxCell>
        <mxCell id="0Ie9fvfiQFUvkpEifEvk-1" value="Spring Pet Clinic architecture" style="rounded=0;whiteSpace=wrap;html=1;" vertex="1" parent="1">
          <mxGeometry width="160" height="30" as="geometry" />
        </mxCell>
        <mxCell id="0Ie9fvfiQFUvkpEifEvk-2" value="&lt;b&gt;Framework Spring&lt;/b&gt;" style="image;aspect=fixed;html=1;points=[];align=center;fontSize=12;image=img/lib/azure2/compute/Azure_Spring_Cloud.svg;" vertex="1" parent="1">
          <mxGeometry x="373" y="215" width="50" height="50" as="geometry" />
        </mxCell>
        <mxCell id="0Ie9fvfiQFUvkpEifEvk-3" value="&lt;b&gt;MySQL &lt;br&gt;Database&lt;/b&gt;" style="sketch=0;outlineConnect=0;fontColor=#232F3E;gradientColor=none;fillColor=#2E27AD;strokeColor=none;dashed=0;verticalLabelPosition=bottom;verticalAlign=top;align=center;html=1;fontSize=12;fontStyle=0;aspect=fixed;pointerEvents=1;shape=mxgraph.aws4.rds_mysql_instance;" vertex="1" parent="1">
          <mxGeometry x="373" y="365" width="50" height="50" as="geometry" />
        </mxCell>
        <mxCell id="0Ie9fvfiQFUvkpEifEvk-5" style="edgeStyle=orthogonalEdgeStyle;rounded=0;orthogonalLoop=1;jettySize=auto;html=1;entryX=0.5;entryY=0;entryDx=0;entryDy=0;" edge="1" parent="1" source="0Ie9fvfiQFUvkpEifEvk-6" target="0Ie9fvfiQFUvkpEifEvk-18">
          <mxGeometry relative="1" as="geometry" />
        </mxCell>
        <mxCell id="0Ie9fvfiQFUvkpEifEvk-6" value="petController" style="rounded=1;whiteSpace=wrap;html=1;absoluteArcSize=1;arcSize=14;strokeWidth=2;" vertex="1" parent="1">
          <mxGeometry x="570" y="215" width="100" height="50" as="geometry" />
        </mxCell>
        <mxCell id="0Ie9fvfiQFUvkpEifEvk-7" style="edgeStyle=orthogonalEdgeStyle;rounded=0;orthogonalLoop=1;jettySize=auto;html=1;entryX=0.5;entryY=0;entryDx=0;entryDy=0;" edge="1" parent="1" source="0Ie9fvfiQFUvkpEifEvk-8" target="0Ie9fvfiQFUvkpEifEvk-9">
          <mxGeometry relative="1" as="geometry" />
        </mxCell>
        <mxCell id="0Ie9fvfiQFUvkpEifEvk-8" value="vetController" style="rounded=1;whiteSpace=wrap;html=1;absoluteArcSize=1;arcSize=14;strokeWidth=2;" vertex="1" parent="1">
          <mxGeometry x="145" y="215" width="100" height="50" as="geometry" />
        </mxCell>
        <mxCell id="0Ie9fvfiQFUvkpEifEvk-28" style="edgeStyle=orthogonalEdgeStyle;rounded=0;orthogonalLoop=1;jettySize=auto;html=1;" edge="1" parent="1" source="0Ie9fvfiQFUvkpEifEvk-9" target="0Ie9fvfiQFUvkpEifEvk-3">
          <mxGeometry relative="1" as="geometry" />
        </mxCell>
        <mxCell id="0Ie9fvfiQFUvkpEifEvk-9" value="vetRepository" style="rounded=1;whiteSpace=wrap;html=1;absoluteArcSize=1;arcSize=14;strokeWidth=2;" vertex="1" parent="1">
          <mxGeometry x="145" y="325" width="100" height="50" as="geometry" />
        </mxCell>
        <mxCell id="0Ie9fvfiQFUvkpEifEvk-10" style="edgeStyle=orthogonalEdgeStyle;rounded=0;orthogonalLoop=1;jettySize=auto;html=1;entryX=1;entryY=0.5;entryDx=0;entryDy=0;" edge="1" parent="1" source="0Ie9fvfiQFUvkpEifEvk-11" target="0Ie9fvfiQFUvkpEifEvk-13">
          <mxGeometry relative="1" as="geometry" />
        </mxCell>
        <mxCell id="0Ie9fvfiQFUvkpEifEvk-34" style="edgeStyle=orthogonalEdgeStyle;rounded=0;orthogonalLoop=1;jettySize=auto;html=1;entryX=0;entryY=0.5;entryDx=0;entryDy=0;" edge="1" parent="1" source="0Ie9fvfiQFUvkpEifEvk-11" target="0Ie9fvfiQFUvkpEifEvk-16">
          <mxGeometry relative="1" as="geometry" />
        </mxCell>
        <mxCell id="0Ie9fvfiQFUvkpEifEvk-11" value="petClinic" style="strokeWidth=2;html=1;shape=mxgraph.flowchart.start_1;whiteSpace=wrap;" vertex="1" parent="1">
          <mxGeometry x="353.5" y="40" width="100" height="60" as="geometry" />
        </mxCell>
        <mxCell id="0Ie9fvfiQFUvkpEifEvk-12" style="edgeStyle=orthogonalEdgeStyle;rounded=0;orthogonalLoop=1;jettySize=auto;html=1;" edge="1" parent="1" source="0Ie9fvfiQFUvkpEifEvk-13" target="0Ie9fvfiQFUvkpEifEvk-8">
          <mxGeometry relative="1" as="geometry" />
        </mxCell>
        <mxCell id="0Ie9fvfiQFUvkpEifEvk-13" value="Veterinary" style="rounded=1;whiteSpace=wrap;html=1;absoluteArcSize=1;arcSize=14;strokeWidth=2;" vertex="1" parent="1">
          <mxGeometry x="145" y="120" width="100" height="50" as="geometry" />
        </mxCell>
        <mxCell id="0Ie9fvfiQFUvkpEifEvk-15" style="edgeStyle=orthogonalEdgeStyle;rounded=0;orthogonalLoop=1;jettySize=auto;html=1;exitX=0.5;exitY=1;exitDx=0;exitDy=0;entryX=0.5;entryY=0;entryDx=0;entryDy=0;" edge="1" parent="1" source="0Ie9fvfiQFUvkpEifEvk-16" target="0Ie9fvfiQFUvkpEifEvk-6">
          <mxGeometry relative="1" as="geometry" />
        </mxCell>
        <mxCell id="0Ie9fvfiQFUvkpEifEvk-16" value="pets" style="rounded=1;whiteSpace=wrap;html=1;absoluteArcSize=1;arcSize=14;strokeWidth=2;" vertex="1" parent="1">
          <mxGeometry x="570" y="120" width="100" height="50" as="geometry" />
        </mxCell>
        <mxCell id="0Ie9fvfiQFUvkpEifEvk-27" style="edgeStyle=orthogonalEdgeStyle;rounded=0;orthogonalLoop=1;jettySize=auto;html=1;" edge="1" parent="1" source="0Ie9fvfiQFUvkpEifEvk-18" target="0Ie9fvfiQFUvkpEifEvk-3">
          <mxGeometry relative="1" as="geometry" />
        </mxCell>
        <mxCell id="0Ie9fvfiQFUvkpEifEvk-18" value="petRepository" style="rounded=1;whiteSpace=wrap;html=1;absoluteArcSize=1;arcSize=14;strokeWidth=2;" vertex="1" parent="1">
          <mxGeometry x="570" y="325" width="100" height="50" as="geometry" />
        </mxCell>
        <mxCell id="0Ie9fvfiQFUvkpEifEvk-22" value="vets" style="rounded=1;whiteSpace=wrap;html=1;absoluteArcSize=1;arcSize=14;strokeWidth=2;" vertex="1" parent="1">
          <mxGeometry x="145" y="120" width="100" height="50" as="geometry" />
        </mxCell>
      </root>
    </mxGraphModel>
  </diagram>
</mxfile>
